<?xml version="1.0" encoding="UTF-8"?>
<svg version="1.1" xmlns="http://www.w3.org/2000/svg" width="500" height="500">
<path d="M0 0 C165 0 330 0 500 0 C500 165 500 330 500 500 C335 500 170 500 0 500 C0 335 0 170 0 0 Z " fill="#000000" transform="translate(0,0)"/>
<path d="M0 0 C41.13163788 -1.85062522 78.26096223 13.31635987 108.51513672 40.671875 C133.18714536 63.74943411 147.37621231 94.22475078 153.09423828 127.14892578 C153.35442749 128.32962646 153.35442749 128.32962646 153.61987305 129.53417969 C157.5493637 151.1939043 153.70685211 176.66011943 146.09423828 197.14892578 C145.44841797 198.97037109 145.44841797 198.97037109 144.78955078 200.82861328 C139.00027236 216.29939686 130.85170782 230.60051705 120.09423828 243.14892578 C119.63291504 243.68855957 119.1715918 244.22819336 118.69628906 244.78417969 C96.796208 270.08088694 66.24891276 288.41985717 33.09423828 294.14892578 C32.29026611 294.31666504 31.48629395 294.4844043 30.65795898 294.65722656 C23.76468381 296.04785059 17.17999946 296.46422241 10.15673828 296.39892578 C9.06844727 296.39070801 7.98015625 296.38249023 6.85888672 296.37402344 C-35.14512026 295.80274929 -72.28438136 280.20618744 -101.90576172 250.14892578 C-122.93079851 227.96661109 -135.86507824 200.17544321 -140.90576172 170.14892578 C-141.09138672 169.25947266 -141.27701172 168.37001953 -141.46826172 167.45361328 C-146.45021432 129.82207847 -136.12405339 89.560757 -113.03076172 59.39892578 C-89.08611758 29.02612664 -54.5832247 5.95759481 -15.57739258 1.02319336 C-10.39282471 0.48952628 -5.20315874 0.26667172 0 0 Z " fill="#FDFDFD" transform="translate(243.90576171875,101.85107421875)"/>
<path d="M0 0 C39.6 0 79.2 0 120 0 C120 17.49 120 34.98 120 53 C115.38 50.36 110.76 47.72 106 45 C95.85773306 40.41647552 84.2092671 36.04105516 73.0625 40.125 C67.62180659 43.45603678 65.70016179 48.04557075 64 54 C63.58946474 58.61770063 63.66692147 63.24071543 63.6875 67.875 C63.69595947 69.83421387 63.69595947 69.83421387 63.70458984 71.83300781 C63.82282305 81.24249836 64.40652071 89.90791744 67 99 C67.17740723 99.62567871 67.35481445 100.25135742 67.53759766 100.89599609 C72.91806935 119.20967966 82.0656539 136.86040266 92.05371094 153.05078125 C95 157.82723002 95 157.82723002 95 160 C74.54 160 54.08 160 33 160 C23.84376669 138.63545561 22.03686966 120.65861346 30.5078125 99.0390625 C34.95972491 88.25397988 40.65571257 78.06693571 46.18066406 67.80761719 C47.32285428 65.6708927 48.44466567 63.52454582 49.5625 61.375 C49.90917725 60.73626953 50.25585449 60.09753906 50.61303711 59.43945312 C53.16165879 54.48448877 53.87793428 50.1605634 52.375 44.75 C49.7668302 41.43051116 46.76234967 40.23979512 42.6171875 39.67578125 C28.30582555 39.07078198 15.35087599 46.32625453 2.74316406 52.23730469 C1 53 1 53 0 53 C0 35.51 0 18.02 0 0 Z " fill="#030303" transform="translate(190,174)"/>
</svg>
